<svg xmlns="http://www.w3.org/2000/svg" viewBox="0 0 1000 181.850" role="img" aria-labelledby="title desc">
<title id="title">Jeddah Corniche Circuit</title>
<desc id="desc">RaceVora circuit outline. Geometry: Tomislav Bacinger, MIT, 394d8fbe70ef2c0b0c8d23ff7bee61fa09606055. All source vertices preserved; geographic projection, rotation and uniform scaling only. Colors are branding, not sector boundaries.</desc>
<style>@media(max-width:240px){.casing{stroke-width:24}.route{stroke-width:14}}</style>
<defs><linearGradient id="rv" x1="0" y1="0" x2="1" y2=".6"><stop stop-color="#35e4db"/><stop offset=".5" stop-color="#529bff"/><stop offset="1" stop-color="#ac80ff"/></linearGradient><path id="circuit" d="M753.948 57.173 L609.798 89.219 L607.129 91.678 L606.568 93.984 L608.890 105.232 L607.850 108.084 L606.244 110.556 L603.278 112.275 L599.323 112.966 L588.797 109.850 L564.716 99.078 L561.167 97.834 L553.977 96.857 L533.875 97.800 L470.356 101.507 L457.601 101.006 L453.184 102.775 L447.600 113.320 L443.754 118.157 L439.770 121.848 L430.328 126.416 L421.173 128.400 L410.379 127.693 L402.210 125.264 L397.627 122.387 L386.908 113.490 L380.907 110.030 L374.479 108.007 L364.364 107.694 L346.989 109.753 L338.947 113.699 L336.055 116.451 L330.174 123.182 L327.025 126.542 L323.680 128.926 L315.757 130.093 L283.267 125.876 L276.294 123.969 L268.063 115.950 L264.813 109.969 L261.614 96.362 L260.006 92.367 L253.226 87.018 L239.078 82.970 L227.874 79.461 L212.103 72.581 L202.384 67.683 L185.864 63.088 L174.588 60.914 L161.729 59.977 L111.033 56.065 L45.342 52.640 L40.970 53.672 L35.255 56.853 L31.415 61.301 L28.000 68.413 L28.336 75.977 L30.342 81.183 L33.200 86.589 L40.585 91.617 L51.133 94.876 L60.876 95.465 L68.900 94.415 L89.628 85.450 L99.492 80.506 L113.450 77.042 L122.112 76.062 L134.096 75.983 L143.216 77.387 L153.756 79.691 L164.534 84.636 L173.556 89.987 L184.281 97.118 L194.676 103.116 L206.422 106.544 L214.623 107.315 L220.932 108.018 L225.448 110.817 L229.160 114.693 L231.603 120.407 L233.731 132.376 L239.731 141.313 L245.541 145.811 L250.680 147.797 L261.022 150.856 L273.021 152.687 L281.207 153.598 L290.455 153.850 L300.381 153.471 L313.036 150.780 L336.694 142.813 L354.719 137.646 L369.775 135.576 L383.022 135.426 L395.543 137.349 L403.159 138.939 L419.697 140.639 L424.496 140.219 L432.201 139.981 L446.292 137.027 L455.338 133.970 L465.144 129.549 L480.250 122.255 L491.616 117.478 L503.495 114.242 L521.180 111.440 L534.039 111.352 L548.390 112.208 L561.415 114.046 L573.152 116.872 L588.725 121.433 L594.054 123.758 L598.911 125.888 L603.494 126.045 L608.256 125.268 L613.710 122.377 L617.468 119.014 L625.660 110.986 L631.516 107.220 L639.364 103.995 L667.207 101.123 L674.237 101.834 L682.053 105.390 L692.155 112.310 L726.965 135.302 L737.834 141.141 L750.606 146.273 L759.767 148.671 L768.116 150.166 L787.562 150.670 L807.261 147.880 L819.297 145.969 L830.886 143.973 L845.287 141.300 L860.805 136.455 L879.364 128.874 L889.689 123.204 L901.669 115.986 L916.617 105.671 L931.954 91.865 L943.243 78.563 L967.621 50.816 L972.000 42.894 L971.074 37.207 L968.535 32.013 L963.545 28.348 L957.881 28.000 L921.818 31.972 L847.438 38.992 L818.701 43.744 L794.871 48.477 L753.948 57.173Z"/></defs>
<use class="casing" href="#circuit" fill="none" stroke="#07121e" stroke-width="15" stroke-linejoin="round" stroke-linecap="round"/>
<use class="route" href="#circuit" fill="none" stroke="url(#rv)" stroke-width="7" stroke-linejoin="round" stroke-linecap="round"/>
</svg>
