<svg xmlns="http://www.w3.org/2000/svg" viewBox="0 0 512 437" role="img" aria-labelledby="title desc">
<title id="title">RaceVora</title><desc id="desc">RaceVora racing eye mark</desc>
<defs><linearGradient id="racevora-gradient" x1="0" y1="0" x2="1" y2="0"><stop offset="0" stop-color="#00e5e5"/><stop offset="0.48" stop-color="#199cff"/><stop offset="1" stop-color="#8228ff"/></linearGradient></defs>
<g fill="url(#racevora-gradient)" fill-rule="evenodd">
<path d="M 420 233 L 417 233 L 416 234 L 413 234 L 412 235 L 410 235 L 409 236 L 407 236 L 406 237 L 404 237 L 403 238 L 401 238 L 400 239 L 397 239 L 396 240 L 394 240 L 393 241 L 391 241 L 390 242 L 388 242 L 387 243 L 385 243 L 384 244 L 382 244 L 381 245 L 379 245 L 378 246 L 376 246 L 375 247 L 373 247 L 372 248 L 370 248 L 363 255 L 363 256 L 354 265 L 353 265 L 345 273 L 344 273 L 335 281 L 334 281 L 332 283 L 331 283 L 328 286 L 327 286 L 325 288 L 324 288 L 319 292 L 316 293 L 314 295 L 313 295 L 312 296 L 311 296 L 310 297 L 309 297 L 308 298 L 307 298 L 306 299 L 305 299 L 304 300 L 303 300 L 302 301 L 301 301 L 296 304 L 294 304 L 291 306 L 289 306 L 288 307 L 286 307 L 285 308 L 284 308 L 283 309 L 281 309 L 280 310 L 277 310 L 276 311 L 273 311 L 272 312 L 269 312 L 268 313 L 264 313 L 263 314 L 259 314 L 258 315 L 251 315 L 250 316 L 223 316 L 222 315 L 214 315 L 213 314 L 208 314 L 207 313 L 203 313 L 202 312 L 199 312 L 198 311 L 194 311 L 193 310 L 190 310 L 189 309 L 187 309 L 186 308 L 183 308 L 180 306 L 178 306 L 177 305 L 175 305 L 174 304 L 172 304 L 171 303 L 169 303 L 168 302 L 167 302 L 166 301 L 164 301 L 163 300 L 162 300 L 157 297 L 155 297 L 154 296 L 153 296 L 152 295 L 151 295 L 150 294 L 149 294 L 148 293 L 147 293 L 146 292 L 145 292 L 144 291 L 143 291 L 142 290 L 141 290 L 140 289 L 139 289 L 138 288 L 137 288 L 136 287 L 135 287 L 134 286 L 133 286 L 132 285 L 129 284 L 127 282 L 126 282 L 125 281 L 122 280 L 120 278 L 119 278 L 118 277 L 115 276 L 113 274 L 112 274 L 111 273 L 110 273 L 105 270 L 104 270 L 104 272 L 121 288 L 122 288 L 125 291 L 126 291 L 130 295 L 131 295 L 133 297 L 134 297 L 137 300 L 138 300 L 140 302 L 141 302 L 143 304 L 144 304 L 149 308 L 150 308 L 151 309 L 152 309 L 154 311 L 157 312 L 159 314 L 160 314 L 161 315 L 162 315 L 163 316 L 164 316 L 165 317 L 166 317 L 167 318 L 170 319 L 172 321 L 173 321 L 178 324 L 180 324 L 181 325 L 182 325 L 185 327 L 187 327 L 192 330 L 194 330 L 195 331 L 197 331 L 198 332 L 200 332 L 201 333 L 203 333 L 204 334 L 206 334 L 207 335 L 210 335 L 211 336 L 213 336 L 214 337 L 218 337 L 219 338 L 222 338 L 223 339 L 228 339 L 229 340 L 236 340 L 237 341 L 261 341 L 262 340 L 268 340 L 269 339 L 274 339 L 275 338 L 278 338 L 279 337 L 283 337 L 284 336 L 286 336 L 287 335 L 289 335 L 290 334 L 292 334 L 293 333 L 295 333 L 296 332 L 298 332 L 299 331 L 301 331 L 304 329 L 306 329 L 307 328 L 308 328 L 309 327 L 310 327 L 311 326 L 312 326 L 313 325 L 314 325 L 315 324 L 316 324 L 317 323 L 318 323 L 319 322 L 320 322 L 321 321 L 322 321 L 323 320 L 326 319 L 328 317 L 331 316 L 333 314 L 336 313 L 338 311 L 339 311 L 341 309 L 342 309 L 344 307 L 345 307 L 347 305 L 348 305 L 351 302 L 352 302 L 355 299 L 356 299 L 359 296 L 360 296 L 371 286 L 372 286 L 402 256 L 402 255 L 409 248 L 409 247 L 419 236 Z"/>
<path d="M 247 226 L 246 227 L 243 227 L 238 230 L 236 230 L 234 232 L 233 232 L 226 239 L 226 240 L 222 245 L 222 247 L 221 248 L 221 250 L 220 251 L 220 253 L 219 254 L 219 266 L 220 267 L 220 270 L 221 271 L 221 273 L 222 274 L 222 275 L 223 276 L 224 279 L 228 283 L 228 284 L 229 284 L 230 285 L 230 286 L 231 286 L 234 289 L 235 289 L 237 291 L 238 291 L 239 292 L 241 292 L 242 293 L 244 293 L 245 294 L 261 294 L 262 293 L 264 293 L 265 292 L 267 292 L 269 290 L 270 290 L 271 289 L 272 289 L 274 287 L 275 287 L 280 282 L 280 281 L 284 276 L 284 275 L 285 274 L 285 272 L 286 271 L 286 269 L 287 268 L 287 263 L 288 262 L 288 258 L 287 257 L 287 252 L 286 251 L 286 249 L 285 248 L 285 247 L 284 246 L 284 245 L 283 244 L 282 241 L 279 238 L 279 237 L 278 237 L 273 232 L 272 232 L 270 230 L 269 230 L 268 229 L 266 229 L 265 228 L 264 228 L 263 227 L 261 227 L 260 226 Z"/>
<path d="M 509 176 L 508 175 L 506 175 L 505 174 L 501 174 L 500 173 L 497 173 L 496 172 L 492 172 L 491 171 L 488 171 L 487 170 L 483 170 L 482 169 L 478 169 L 477 168 L 473 168 L 472 167 L 468 167 L 467 166 L 464 166 L 463 165 L 459 165 L 458 164 L 457 164 L 456 165 L 456 166 L 449 173 L 449 174 L 441 182 L 441 183 L 438 186 L 427 186 L 426 185 L 416 185 L 415 184 L 410 184 L 409 183 L 417 175 L 418 175 L 427 166 L 427 165 L 401 165 L 400 166 L 382 166 L 381 167 L 367 167 L 366 168 L 355 168 L 354 169 L 344 169 L 343 170 L 335 170 L 334 171 L 326 171 L 325 172 L 319 172 L 318 173 L 312 173 L 311 174 L 305 174 L 304 175 L 299 175 L 298 176 L 293 176 L 292 177 L 287 177 L 286 178 L 282 178 L 281 179 L 277 179 L 276 180 L 272 180 L 271 181 L 267 181 L 266 182 L 262 182 L 261 183 L 258 183 L 257 184 L 253 184 L 252 185 L 249 185 L 248 186 L 245 186 L 244 187 L 241 187 L 240 188 L 237 188 L 236 189 L 233 189 L 232 190 L 230 190 L 229 191 L 226 191 L 225 192 L 223 192 L 222 193 L 219 193 L 218 194 L 216 194 L 215 195 L 213 195 L 212 196 L 209 196 L 208 197 L 206 197 L 205 198 L 203 198 L 202 199 L 200 199 L 199 200 L 197 200 L 196 201 L 194 201 L 193 202 L 191 202 L 190 203 L 188 203 L 187 204 L 185 204 L 184 205 L 182 205 L 181 206 L 179 206 L 176 208 L 174 208 L 173 209 L 171 209 L 170 210 L 168 210 L 165 212 L 163 212 L 160 214 L 158 214 L 155 216 L 153 216 L 152 217 L 151 217 L 148 219 L 146 219 L 145 220 L 144 220 L 139 223 L 137 223 L 132 226 L 130 226 L 129 227 L 128 227 L 123 230 L 121 230 L 120 231 L 119 231 L 118 232 L 117 232 L 116 233 L 115 233 L 114 234 L 113 234 L 112 235 L 111 235 L 110 236 L 109 236 L 108 237 L 107 237 L 106 238 L 105 238 L 104 239 L 103 239 L 102 240 L 101 240 L 100 241 L 99 241 L 98 242 L 97 242 L 96 243 L 95 243 L 94 244 L 93 244 L 92 245 L 91 245 L 90 246 L 87 247 L 85 249 L 84 249 L 83 250 L 81 250 L 79 252 L 78 252 L 77 253 L 74 254 L 72 256 L 71 256 L 70 257 L 67 258 L 65 260 L 62 261 L 60 263 L 57 264 L 55 266 L 54 266 L 53 267 L 52 267 L 50 269 L 47 270 L 45 272 L 44 272 L 42 274 L 41 274 L 39 276 L 38 276 L 36 278 L 35 278 L 30 282 L 27 283 L 24 286 L 23 286 L 21 288 L 20 288 L 18 290 L 17 290 L 14 293 L 13 293 L 11 295 L 10 295 L 7 298 L 6 298 L 3 301 L 2 301 L 3 302 L 5 302 L 6 301 L 7 301 L 8 300 L 9 300 L 10 299 L 11 299 L 12 298 L 13 298 L 14 297 L 15 297 L 16 296 L 17 296 L 18 295 L 19 295 L 20 294 L 21 294 L 22 293 L 23 293 L 28 290 L 30 290 L 31 289 L 32 289 L 33 288 L 34 288 L 35 287 L 36 287 L 37 286 L 38 286 L 43 283 L 45 283 L 46 282 L 47 282 L 48 281 L 49 281 L 50 280 L 51 280 L 52 279 L 53 279 L 58 276 L 60 276 L 61 275 L 62 275 L 63 274 L 64 274 L 69 271 L 71 271 L 76 268 L 78 268 L 79 267 L 80 267 L 83 265 L 85 265 L 90 262 L 92 262 L 95 260 L 97 260 L 102 257 L 104 257 L 107 255 L 109 255 L 110 254 L 112 254 L 115 252 L 117 252 L 120 250 L 122 250 L 123 249 L 125 249 L 128 247 L 130 247 L 131 246 L 133 246 L 134 245 L 136 245 L 139 243 L 142 243 L 145 241 L 147 241 L 148 240 L 150 240 L 151 239 L 153 239 L 154 238 L 156 238 L 157 237 L 159 237 L 160 236 L 162 236 L 163 235 L 165 235 L 166 234 L 168 234 L 169 233 L 172 233 L 173 232 L 175 232 L 176 231 L 178 231 L 179 230 L 181 230 L 182 229 L 185 229 L 186 228 L 188 228 L 189 227 L 192 227 L 193 226 L 195 226 L 196 225 L 199 225 L 200 224 L 203 224 L 204 223 L 207 223 L 208 222 L 211 222 L 212 221 L 215 221 L 216 220 L 219 220 L 220 219 L 224 219 L 225 218 L 228 218 L 229 217 L 233 217 L 234 216 L 238 216 L 239 215 L 243 215 L 244 214 L 248 214 L 249 213 L 254 213 L 255 212 L 260 212 L 261 211 L 267 211 L 268 210 L 274 210 L 275 209 L 282 209 L 283 208 L 290 208 L 291 207 L 301 207 L 302 206 L 316 206 L 317 205 L 360 205 L 376 189 L 376 188 L 378 186 L 379 186 L 380 185 L 405 185 L 406 186 L 386 206 L 387 207 L 393 207 L 394 208 L 403 208 L 404 209 L 412 209 L 413 210 L 419 210 L 420 211 L 426 211 L 427 212 L 434 212 L 435 213 L 440 213 L 441 214 L 453 214 L 454 215 L 460 215 L 461 216 L 466 216 L 467 217 L 472 217 L 473 218 L 478 218 L 479 219 L 489 209 L 489 208 L 499 198 L 499 197 L 497 197 L 496 196 L 492 196 L 491 195 L 488 195 L 487 194 L 482 194 L 481 193 L 477 193 L 476 192 L 472 192 L 470 190 L 471 189 L 471 188 L 483 176 L 484 177 L 497 177 L 498 178 L 507 178 Z M 419 208 L 419 207 L 426 200 L 426 199 L 434 191 L 434 190 L 437 187 L 444 187 L 445 188 L 451 188 L 452 189 L 457 189 L 458 190 L 464 190 L 465 191 L 467 191 L 468 192 L 455 205 L 455 206 L 449 212 L 443 212 L 442 211 L 434 211 L 433 210 L 426 210 L 425 209 L 420 209 Z"/>
<path d="M 419 148 L 417 148 L 416 147 L 412 147 L 411 146 L 406 146 L 405 145 L 400 145 L 399 144 L 393 144 L 392 143 L 384 143 L 383 142 L 372 142 L 371 141 L 352 141 L 351 140 L 332 140 L 331 141 L 312 141 L 311 142 L 299 142 L 298 143 L 290 143 L 289 144 L 283 144 L 282 145 L 276 145 L 275 146 L 269 146 L 268 147 L 264 147 L 263 148 L 259 148 L 258 149 L 253 149 L 252 150 L 249 150 L 248 151 L 244 151 L 243 152 L 240 152 L 239 153 L 236 153 L 235 154 L 232 154 L 231 155 L 228 155 L 227 156 L 224 156 L 223 157 L 221 157 L 220 158 L 217 158 L 216 159 L 214 159 L 213 160 L 210 160 L 209 161 L 207 161 L 206 162 L 204 162 L 203 163 L 201 163 L 200 164 L 198 164 L 197 165 L 195 165 L 194 166 L 192 166 L 191 167 L 189 167 L 188 168 L 186 168 L 183 170 L 181 170 L 180 171 L 178 171 L 177 172 L 176 172 L 175 173 L 173 173 L 170 175 L 168 175 L 167 176 L 165 176 L 160 179 L 158 179 L 153 182 L 151 182 L 146 185 L 144 185 L 143 186 L 142 186 L 137 189 L 135 189 L 134 190 L 133 190 L 132 191 L 131 191 L 130 192 L 129 192 L 128 193 L 127 193 L 126 194 L 125 194 L 124 195 L 123 195 L 122 196 L 121 196 L 120 197 L 119 197 L 118 198 L 117 198 L 116 199 L 115 199 L 114 200 L 113 200 L 112 201 L 111 201 L 110 202 L 109 202 L 108 203 L 107 203 L 106 204 L 105 204 L 104 205 L 103 205 L 102 206 L 99 207 L 97 209 L 96 209 L 95 210 L 94 210 L 93 211 L 90 212 L 88 214 L 87 214 L 86 215 L 85 215 L 84 216 L 81 217 L 79 219 L 78 219 L 77 220 L 76 220 L 74 222 L 71 223 L 66 227 L 63 228 L 61 230 L 60 230 L 58 232 L 57 232 L 52 236 L 49 237 L 46 240 L 46 241 L 47 241 L 48 242 L 50 242 L 51 243 L 53 243 L 56 245 L 58 245 L 59 246 L 61 246 L 62 247 L 65 248 L 66 247 L 67 247 L 69 245 L 70 245 L 71 244 L 72 244 L 73 243 L 76 242 L 78 240 L 79 240 L 80 239 L 81 239 L 82 238 L 83 238 L 84 237 L 85 237 L 86 236 L 87 236 L 88 235 L 89 235 L 90 234 L 91 234 L 92 233 L 93 233 L 94 232 L 95 232 L 96 231 L 97 231 L 98 230 L 99 230 L 100 229 L 103 228 L 105 226 L 106 226 L 111 223 L 113 223 L 114 222 L 115 222 L 116 221 L 117 221 L 118 220 L 119 220 L 124 217 L 126 217 L 127 216 L 128 216 L 129 215 L 130 215 L 131 214 L 132 214 L 137 211 L 139 211 L 140 210 L 141 210 L 142 209 L 144 209 L 149 206 L 151 206 L 152 205 L 153 205 L 158 202 L 160 202 L 163 200 L 165 200 L 166 199 L 168 199 L 171 197 L 173 197 L 174 196 L 175 196 L 176 195 L 178 195 L 181 193 L 183 193 L 184 192 L 186 192 L 189 190 L 191 190 L 192 189 L 194 189 L 195 188 L 197 188 L 198 187 L 200 187 L 201 186 L 203 186 L 204 185 L 206 185 L 209 183 L 212 183 L 213 182 L 215 182 L 216 181 L 218 181 L 219 180 L 221 180 L 222 179 L 225 179 L 226 178 L 228 178 L 229 177 L 231 177 L 232 176 L 235 176 L 236 175 L 238 175 L 239 174 L 242 174 L 243 173 L 245 173 L 246 172 L 249 172 L 250 171 L 253 171 L 254 170 L 256 170 L 257 169 L 261 169 L 262 168 L 265 168 L 266 167 L 269 167 L 270 166 L 274 166 L 275 165 L 278 165 L 279 164 L 283 164 L 284 163 L 288 163 L 289 162 L 293 162 L 294 161 L 298 161 L 299 160 L 303 160 L 304 159 L 309 159 L 310 158 L 316 158 L 317 157 L 323 157 L 324 156 L 330 156 L 331 155 L 339 155 L 340 154 L 348 154 L 349 153 L 358 153 L 359 152 L 370 152 L 371 151 L 387 151 L 388 150 L 417 150 L 418 149 L 419 149 Z"/>
</g></svg>